<?xml version="1.0" ?>
<svg xmlns="http://www.w3.org/2000/svg" width="300" height="300" version="1.1">
  <rect x="50" y="50" width="200" height="150" fill="#A50034" rx="10" ry="10"/>
  <line x1="60" y1="80" x2="240" y2="80" stroke="#FFFFFF" stroke-width="3"/>
  <line x1="60" y1="120" x2="240" y2="120" stroke="#FFFFFF" stroke-width="3"/>
  <line x1="60" y1="160" x2="240" y2="160" stroke="#FFFFFF" stroke-width="3"/>
  <rect x="70" y="60" width="30" height="30" fill="#165500" rx="5" ry="5"/>
  <rect x="110" y="60" width="30" height="30" fill="#165500" rx="5" ry="5"/>
  <rect x="150" y="60" width="30" height="30" fill="#165500" rx="5" ry="5"/>
  <rect x="70" y="100" width="30" height="30" fill="#165500" rx="5" ry="5"/>
  <rect x="110" y="100" width="30" height="30" fill="#165500" rx="5" ry="5"/>
  <rect x="150" y="100" width="30" height="30" fill="#165500" rx="5" ry="5"/>
  <circle cx="200" cy="220" r="30" stroke="#165500" stroke-width="5" fill="none"/>
  <line x1="220" y1="240" x2="250" y2="270" stroke="#165500" stroke-width="5"/>
  <text x="90" y="30" fill="#A50034" font-size="18" font-family="Arial">Warehouse ERP</text>
</svg>
